<svg width="512" height="512" viewBox="0 0 512 512" fill="none" xmlns="http://www.w3.org/2000/svg">
<path d="M122.502 207.24C127.641 178.74 150.502 151.74 170.495 138.74C170.495 138.74 145.495 160.24 136.995 181.24C128.495 202.24 131.552 234.393 141.995 262.24C152.495 290.24 178.995 318.249 213.995 339.74C248.995 361.231 263.995 369.74 293.995 369.74C323.995 369.74 346.995 353.74 363.495 353.74C379.995 353.74 384.995 358.407 388.495 361.24C384.662 359.907 375.895 357.24 371.495 357.24C365.995 357.24 361.495 356.24 339.995 366.24C318.495 376.24 309.5 379.24 285 379.74C260.5 380.24 234.5 369.74 196.995 351.74C159.49 333.74 144.004 312.24 132 290.74C119.996 269.24 117.362 235.74 122.502 207.24Z" fill="#00A7FF"/>
<path d="M277.002 141.741C301.502 143.728 326.502 164.241 329.002 197.241C333.002 189.741 335.867 176.741 333.502 159.241C331.137 141.741 324.002 129.241 310.502 116.741C297.002 104.241 276.502 98.7411 254.002 100.241C231.502 101.741 213.002 107.741 193.002 125.241C173.002 142.741 154.504 180.741 151.502 200.241C148.5 219.741 153.502 245.241 163.502 265.741C173.502 286.241 232.502 331.241 242.502 337.741C252.502 344.241 264.002 349.241 287.002 350.241C310.002 351.241 335.498 331.241 369 332.241C384 332.689 395 337.741 403.002 341.241C395 334.241 384.5 323.241 359.502 323.241C343.994 323.241 314.502 332.241 292.002 333.241C269.502 334.241 247.502 310.241 236.002 298.241C224.502 286.241 203.502 252.241 202.002 228.241C200.502 204.241 212.502 175.741 226.002 159.241C239.502 142.741 259.702 140.339 277.002 141.741Z" fill="#00A7FF"/>
<path d="M164.5 357.24C134.5 336.84 115 285.74 109 262.74C110.5 296.24 120.5 315.24 133.5 338.24C146.5 361.24 178 383.74 203 389.24C228 394.74 237 397.24 246.5 400.24C256 403.24 274 411.74 289 412.24C304 412.74 317.5 402.74 325.5 398.24C333.5 393.74 337.5 393.74 348 394.74C345.667 393.74 341.5 390.74 333.5 391.24C325.5 391.74 321 398.24 302.5 399.24C284 400.24 264 389.24 243.5 383.74C223 378.24 202 382.74 164.5 357.24Z" fill="#00A7FF"/>
</svg>
